<svg xmlns="http://www.w3.org/2000/svg" viewBox="0 0 200 250" style="background-color: transparent;">
  <defs>
    <linearGradient id="deviceGradient" x1="0%" y1="0%" x2="100%" y2="100%">
      <stop offset="0%" style="stop-color:#4a4a4a;stop-opacity:1" />
      <stop offset="100%" style="stop-color:#2c2c2c;stop-opacity:1" />
    </linearGradient>
    
    <linearGradient id="screenGradient" x1="0%" y1="0%" x2="0%" y2="100%">
      <stop offset="0%" style="stop-color:#a0e6a0;stop-opacity:1" />
      <stop offset="100%" style="stop-color:#308030;stop-opacity:1" />
    </linearGradient>
    
    <filter id="shadow" x="-20%" y="-20%" width="140%" height="140%">
      <feGaussianBlur in="SourceAlpha" stdDeviation="3" result="shadow"/>
      <feOffset dx="0" dy="2"/>
      <feComposite in2="SourceAlpha" operator="arithmetic" k2="-1" k3="1"/>
      <feColorMatrix type="matrix" values="0 0 0 0 0  0 0 0 0 0  0 0 0 0 0  0 0 0 0.3 0"/>
    </filter>
  </defs>
  
  <!-- Device Body Shadow -->
  <rect x="15" y="15" width="170" height="220" rx="25" ry="25" 
        fill="black" opacity="0.2" filter="url(#shadow)"/>
  
  <!-- Device Body -->
  <rect x="10" y="10" width="180" height="230" rx="25" ry="25" 
        fill="url(#deviceGradient)" 
        stroke="#1a1a1a" 
        stroke-width="4"/>
  
  <!-- Screen Border -->
  <rect x="25" y="20" width="150" height="120" rx="10" ry="10" 
        fill="#000" 
        stroke="#444" 
        stroke-width="4"/>
  
  <!-- Screen -->
  <rect x="30" y="25" width="140" height="110" rx="5" ry="5" 
        fill="url(#screenGradient)"/>
  
  
  <!-- D-Pad -->
  <g transform="translate(40 160)">
    <rect x="0" y="0" width="60" height="60" rx="10" ry="10" fill="#333"/>
    <rect x="20" y="5" width="20" height="50" fill="#444" rx="5" ry="5"/>
    <rect x="5" y="20" width="50" height="20" fill="#444" rx="5" ry="5"/>
  </g>
  
  <!-- A/B Buttons -->
  <g transform="translate(120 170)">
    <circle cx="15" cy="15" r="15" fill="#8c0000" stroke="#600000" stroke-width="3"/>
    <circle cx="45" cy="15" r="15" fill="#8c0000" stroke="#600000" stroke-width="3"/>
    <text x="11" y="20" font-family="Arial" font-size="12" fill="white" font-weight="bold">A</text>
    <text x="42" y="20" font-family="Arial" font-size="12" fill="white" font-weight="bold">B</text>
  </g>
  
</svg>